<svg width="20.071289" height="17.778168" viewBox="0 0 20.0713 17.7782" fill="none" xmlns="http://www.w3.org/2000/svg" xmlns:xlink="http://www.w3.org/1999/xlink">
	<desc>
			Created with Pixso.
	</desc>
	<defs/>
	<path id="Union" d="M11.93 17.21Q12.24 17.01 12.51 16.75L18.16 11.09Q18.67 10.59 19.04 10Q19.36 9.5 19.59 8.94Q19.82 8.38 19.94 7.8Q20.07 7.16 20.07 6.5Q20.07 5.83 19.94 5.19Q19.82 4.61 19.59 4.05Q19.36 3.49 19.04 2.99Q18.67 2.4 18.16 1.9Q17.66 1.39 17.07 1.02Q16.57 0.7 16.01 0.47Q15.45 0.24 14.87 0.13Q14.23 0 13.57 0Q12.9 0 12.26 0.13Q11.68 0.24 11.12 0.47Q10.56 0.7 10.06 1.02Q10.05 1.03 10.03 1.04Q10.01 1.03 10 1.02Q9.5 0.7 8.94 0.47Q8.38 0.24 7.8 0.13Q7.16 0 6.5 0Q5.83 0 5.19 0.13Q4.61 0.24 4.05 0.47Q3.49 0.7 2.99 1.02Q2.4 1.39 1.9 1.9Q1.39 2.4 1.02 2.99Q0.7 3.49 0.47 4.05Q0.24 4.61 0.13 5.19Q0 5.83 0 6.5Q0 7.16 0.13 7.8Q0.24 8.38 0.47 8.94Q0.7 9.5 1.02 10Q1.39 10.59 1.9 11.09L7.56 16.75Q7.82 17.01 8.13 17.21Q8.41 17.39 8.71 17.52Q9.02 17.64 9.34 17.7Q9.68 17.77 10.03 17.77Q10.38 17.77 10.73 17.7Q11.04 17.64 11.35 17.52Q11.65 17.39 11.93 17.21ZM10.03 2.96C11.98 1.01 15.15 1.01 17.1 2.96C19.05 4.91 19.05 8.08 17.1 10.03L11.44 15.69C10.66 16.47 9.4 16.47 8.62 15.69L2.96 10.03C1.01 8.08 1.01 4.91 2.96 2.96C4.91 1.01 8.08 1.01 10.03 2.96Z" fill="#897E73" fill-opacity="1.000000" fill-rule="evenodd"/>
</svg>
