<svg width="24.000000" height="24.000000" viewBox="0 0 24 24" fill="none" xmlns="http://www.w3.org/2000/svg" xmlns:xlink="http://www.w3.org/1999/xlink">
	<desc>
			Created with Pixso.
	</desc>
	<defs/>
	<rect id="Icon Frame" rx="-0.500000" width="23.000000" height="23.000000" transform="translate(0.500000 0.500000)" fill="#FFFFFF" fill-opacity="0"/>
	<path id="Rectangle 63" d="M20.65 18.31L21.49 9.13Q21.49 9.1 21.49 9.06Q21.5 9.03 21.5 9Q21.5 8.37 21.06 7.93Q20.62 7.5 20 7.5L4 7.5Q3.96 7.5 3.93 7.5Q3.89 7.5 3.86 7.5Q3.24 7.56 2.84 8.03Q2.44 8.51 2.5 9.13L3.34 18.31Q3.37 18.66 3.47 18.99Q3.55 19.29 3.7 19.57Q3.84 19.85 4.02 20.09Q4.22 20.36 4.46 20.58Q4.71 20.8 4.98 20.98Q5.25 21.14 5.54 21.25Q5.83 21.37 6.13 21.43Q6.47 21.5 6.82 21.5L17.17 21.5Q17.52 21.5 17.86 21.43Q18.16 21.37 18.45 21.25Q18.74 21.14 19.01 20.98Q19.28 20.8 19.53 20.58Q19.77 20.36 19.97 20.09Q20.15 19.85 20.29 19.57Q20.44 19.29 20.52 18.99Q20.62 18.66 20.65 18.31ZM18.49 9L4 9L4.83 18.18C4.92 19.21 5.79 20 6.82 20L17.17 20C18.2 20 19.07 19.21 19.16 18.18L19.86 10.5L20 9L18.49 9Z" fill="#897E73" fill-opacity="1.000000" fill-rule="evenodd"/>
	<path id="Ellipse 36" d="M7.25 11L7.25 8Q7.25 7.03 7.62 6.15Q7.98 5.29 8.64 4.64Q9.29 3.98 10.15 3.62Q11.03 3.25 12 3.25Q12.96 3.25 13.84 3.62Q14.7 3.98 15.35 4.64Q16.01 5.29 16.37 6.15Q16.75 7.03 16.75 8L16.75 11L15.25 11L15.25 8Q15.25 7.33 14.99 6.73Q14.74 6.15 14.29 5.7Q13.84 5.25 13.26 5Q12.66 4.75 12 4.75Q11.33 4.75 10.73 5Q10.15 5.25 9.7 5.7Q9.25 6.15 9 6.73Q8.75 7.33 8.75 8L8.75 11L7.25 11ZM8.72 10.98L8.75 11C8.75 11.42 8.41 11.75 8 11.75C7.58 11.75 7.25 11.42 7.25 11L7.27 10.98L8.72 10.98ZM16.73 10.98L16.75 11C16.75 11.42 16.41 11.75 16 11.75C15.58 11.75 15.25 11.42 15.25 11L15.27 10.98L16.73 10.98Z" fill="#897E73" fill-opacity="1.000000" fill-rule="evenodd"/>
</svg>
