<svg width="24.000000" height="24.000000" viewBox="0 0 24 24" fill="none" xmlns="http://www.w3.org/2000/svg" xmlns:xlink="http://www.w3.org/1999/xlink">
	<desc>
			Created with Pixso.
	</desc>
	<defs>
		<clipPath id="clip49_3701">
			<rect id="Icon / 24×24 / Line / General / Heart" rx="-0.500000" width="23.000000" height="23.000000" transform="translate(0.500000 0.500000)" fill="white" fill-opacity="0"/>
		</clipPath>
	</defs>
	<g clip-path="url(#clip49_3701)">
		<rect id="Icon Frame" rx="-0.500000" width="23.000000" height="23.000000" transform="translate(0.500000 0.500000)" fill="#FFFFFF" fill-opacity="0"/>
		<path id="Union" d="M19.07 13.14L13.41 18.79C12.63 19.58 11.36 19.58 10.58 18.79L4.92 13.14C2.97 11.18 2.97 8.02 4.92 6.07C6.88 4.11 10.04 4.11 12 6.07C13.95 4.11 17.11 4.11 19.07 6.07C21.02 8.02 21.02 11.18 19.07 13.14Z" fill="#EA592A" fill-opacity="1.000000" fill-rule="nonzero"/>
		<path id="Union" d="M13.41 18.79C12.63 19.58 11.36 19.58 10.58 18.79L4.92 13.14C2.97 11.18 2.97 8.02 4.92 6.07C6.88 4.11 10.04 4.11 12 6.07C13.95 4.11 17.11 4.11 19.07 6.07C21.02 8.02 21.02 11.18 19.07 13.14L13.41 18.79Z" stroke="#EB5757" stroke-opacity="1.000000" stroke-width="1.500000" stroke-linejoin="round"/>
	</g>
</svg>
