<svg width="24.000000" height="24.000000" viewBox="0 0 24 24" fill="none" xmlns="http://www.w3.org/2000/svg" xmlns:xlink="http://www.w3.org/1999/xlink">
	<desc>
			Created with Pixso.
	</desc>
	<defs/>
	<rect id="Icon Frame" rx="-0.500000" width="23.000000" height="23.000000" transform="translate(0.500000 0.500000)" fill="#FFFFFF" fill-opacity="0"/>
	<path id="Vector" d="M18 20C19.1 20 20 19.1 20 18L20 10.02L20.73 10.02L20.75 10C20.75 9.57 20.41 9.25 20 9.25C19.79 9.25 19.6 9.33 19.46 9.46L12 2L4.53 9.46C4.39 9.33 4.2 9.25 4 9.25C3.58 9.25 3.25 9.57 3.25 10L3.27 10.02L4 10.02L4 18C4 19.1 4.89 20 6 20L18 20ZM22.5 11.46L22.53 11.46C22.82 11.76 22.82 12.23 22.53 12.53C22.23 12.82 21.76 12.82 21.46 12.53L21.46 12.5L22.5 11.46ZM2.53 12.53L2.53 12.5L1.49 11.46L1.46 11.46C1.17 11.76 1.17 12.23 1.46 12.53C1.76 12.82 2.23 12.82 2.53 12.53Z" fill="#EA592A" fill-opacity="1.000000" fill-rule="evenodd"/>
	<path id="Vector" d="M4 10L4 18C4 19.1 4.89 20 6 20L18 20C19.1 20 20 19.1 20 18L20 10M22 12L20 10L12 2L4 10L2 12" stroke="#EB5757" stroke-opacity="1.000000" stroke-width="1.500000" stroke-linejoin="round"/>
</svg>
