<svg width="42.000000" height="42.000000" viewBox="0 0 42 42" fill="none" xmlns="http://www.w3.org/2000/svg" xmlns:xlink="http://www.w3.org/1999/xlink">
	<desc>
			Created with Pixso.
	</desc>
	<defs>
		<clipPath id="clip49_2594">
			<rect id="Icon / 24×24 / Line / General / Category" rx="-0.500000" width="23.000000" height="23.000000" transform="translate(9.500000 9.500000)" fill="white" fill-opacity="0"/>
		</clipPath>
	</defs>
	<circle id="Ellipse 60" cx="21.000000" cy="21.000000" r="21.000000" fill="#EA592A" fill-opacity="1.000000"/>
	<circle id="Ellipse 60" cx="21.000000" cy="21.000000" r="20.500000" stroke="#EB5757" stroke-opacity="1.000000" stroke-width="1.000000"/>
	<g clip-path="url(#clip49_2594)">
		<rect id="Icon Frame" rx="-0.500000" width="23.000000" height="23.000000" transform="translate(9.500000 9.500000)" fill="#FFFFFF" fill-opacity="0"/>
		<circle id="Ellipse 24" cx="26.000000" cy="16.000000" r="3.000000" stroke="#FFFFFF" stroke-opacity="1.000000" stroke-width="1.500000" stroke-linejoin="round"/>
		<circle id="Ellipse 25" cx="16.000000" cy="26.000000" r="3.000000" stroke="#FFFFFF" stroke-opacity="1.000000" stroke-width="1.500000" stroke-linejoin="round"/>
		<path id="Rectangle 13" d="M29 23L29 28C29 28.55 28.55 29 28 29L24 29C23.44 29 23 28.55 23 28L23 23L29 23Z" stroke="#FFFFFF" stroke-opacity="1.000000" stroke-width="1.500000" stroke-linejoin="round"/>
		<path id="Rectangle 14" d="M19 13L19 18C19 18.55 18.55 19 18 19L14 19C13.44 19 13 18.55 13 18L13 13L19 13Z" stroke="#FFFFFF" stroke-opacity="1.000000" stroke-width="1.500000" stroke-linejoin="round"/>
	</g>
</svg>
