<svg width="24.000000" height="24.000000" viewBox="0 0 24 24" fill="none" xmlns="http://www.w3.org/2000/svg" xmlns:xlink="http://www.w3.org/1999/xlink">
	<desc>
			Created with Pixso.
	</desc>
	<defs/>
	<rect id="Icon Frame" rx="-0.500000" width="23.000000" height="23.000000" transform="translate(0.500000 0.500000)" fill="#FFFFFF" fill-opacity="0"/>
	<path id="Rectangle 71" d="M17.17 12.62Q16.6 12.5 16 12.5L8 12.5Q7.39 12.5 6.82 12.62Q6.33 12.73 5.85 12.93Q5.38 13.13 4.96 13.4Q4.5 13.71 4.11 14.11Q3.71 14.5 3.4 14.96Q3.13 15.38 2.93 15.85Q2.73 16.33 2.62 16.82Q2.5 17.39 2.5 18Q2.5 18.37 2.57 18.73Q2.64 19.05 2.77 19.36Q2.9 19.66 3.08 19.93Q3.27 20.22 3.52 20.47Q3.77 20.72 4.06 20.91Q4.33 21.09 4.63 21.22Q4.94 21.35 5.26 21.42Q5.62 21.5 6 21.5L18 21.5Q18.37 21.5 18.73 21.42Q19.05 21.35 19.36 21.22Q19.66 21.09 19.93 20.91Q20.22 20.72 20.47 20.47Q20.72 20.22 20.91 19.93Q21.09 19.66 21.22 19.36Q21.35 19.05 21.42 18.73Q21.5 18.37 21.5 18Q21.5 17.39 21.37 16.82Q21.26 16.33 21.06 15.85Q20.86 15.38 20.59 14.96Q20.28 14.5 19.88 14.11Q19.49 13.71 19.03 13.4Q18.61 13.13 18.14 12.93Q17.66 12.73 17.17 12.62ZM8 14L16 14C18.2 14 20 15.79 20 18C20 19.1 19.1 20 18 20L6 20C4.89 20 4 19.1 4 18C4 15.79 5.79 14 8 14Z" fill="#897E73" fill-opacity="1.000000" fill-rule="evenodd"/>
	<circle id="Ellipse 59" cx="12.000000" cy="7.000000" r="3.750000" stroke="#897E73" stroke-opacity="1.000000" stroke-width="1.500000"/>
</svg>
