<svg width="133" height="33" viewBox="0 0 133 33" fill="none" xmlns="http://www.w3.org/2000/svg">
<path d="M5.434 18.214L0.418 8.666H2.64L6.424 16.432L10.208 8.666H12.43L7.436 18.214V24H5.434V18.214ZM24.5077 19.82C24.5077 21.998 22.7257 24.154 19.4037 24.154C16.3237 24.154 14.1457 22.438 14.1017 19.908H16.2357C16.3677 21.184 17.2697 22.46 19.4037 22.46C21.3397 22.46 22.4837 21.36 22.4837 19.908C22.4837 15.772 14.1897 18.412 14.1897 12.714C14.1897 10.184 16.2357 8.468 19.2717 8.468C22.1977 8.468 24.1117 10.074 24.3537 12.406H22.1537C22.0217 11.372 21.0537 10.206 19.1837 10.184C17.5337 10.14 16.2357 10.998 16.2357 12.648C16.2357 16.608 24.5077 14.144 24.5077 19.82ZM36.1658 19.688C36.1658 17.994 34.8898 16.938 32.9318 16.938H29.4558V22.35H32.9978C34.9778 22.35 36.1658 21.36 36.1658 19.688ZM35.7698 12.802C35.7698 11.284 34.7358 10.316 32.7778 10.316H29.4558V15.288H32.8218C34.6918 15.288 35.7698 14.364 35.7698 12.802ZM38.1678 19.886C38.1678 22.196 36.3418 24 33.1738 24H27.4538V8.666H32.9538C36.1878 8.666 37.8158 10.426 37.8158 12.56C37.8158 14.496 36.6058 15.618 35.1318 16.102C36.8038 16.388 38.1678 17.994 38.1678 19.886ZM42.904 22.768C42.904 23.538 42.31 24.132 41.584 24.132C40.814 24.132 40.22 23.538 40.22 22.768C40.22 21.998 40.814 21.404 41.584 21.404C42.31 21.404 42.904 21.998 42.904 22.768ZM45.5651 24V8.666H54.2331V10.294H47.5671V15.464H52.9791V17.092H47.5671V24H45.5651ZM67.343 11.944V24H65.341V22.218C64.571 23.472 63.097 24.176 61.491 24.176C58.719 24.176 56.541 22.46 56.541 19.006V11.944H58.521V18.742C58.521 21.184 59.863 22.438 61.887 22.438C63.955 22.438 65.341 21.162 65.341 18.566V11.944H67.343ZM79.5453 24V17.18C79.5453 14.716 78.2033 13.462 76.1793 13.462C74.1333 13.462 72.7253 14.738 72.7253 17.334V24H70.7233V11.944H72.7253V13.66C73.5173 12.406 74.9693 11.724 76.5973 11.724C79.3913 11.724 81.5253 13.44 81.5253 16.894V24H79.5453ZM84.7956 24V11.944H86.7976V24H84.7956ZM85.8296 9.986C85.0596 9.986 84.4656 9.392 84.4656 8.622C84.4656 7.852 85.0596 7.258 85.8296 7.258C86.5556 7.258 87.1496 7.852 87.1496 8.622C87.1496 9.392 86.5556 9.986 85.8296 9.986ZM90.6496 20.7V13.594H89.0876V11.944H90.6496V8.908H92.6516V11.944H95.7976V13.594H92.6516V20.7C92.6516 21.888 93.0916 22.306 94.3236 22.306H95.7976V24H93.9936C91.8596 24 90.6496 23.12 90.6496 20.7ZM108.915 11.944V24H106.913V22.218C106.143 23.472 104.669 24.176 103.063 24.176C100.291 24.176 98.1133 22.46 98.1133 19.006V11.944H100.093V18.742C100.093 21.184 101.435 22.438 103.459 22.438C105.527 22.438 106.913 21.162 106.913 18.566V11.944H108.915ZM114.298 17.444V24H112.296V11.944H114.298V13.902C114.98 12.56 116.278 11.724 118.192 11.724V13.792H117.664C115.75 13.792 114.298 14.65 114.298 17.444ZM125.629 13.44C123.671 13.44 122.043 14.738 121.823 17.092H129.435C129.457 14.738 127.697 13.44 125.629 13.44ZM131.261 20.282C130.645 22.482 128.709 24.198 125.717 24.198C122.285 24.198 119.755 21.778 119.755 17.95C119.755 14.144 122.197 11.746 125.717 11.746C129.215 11.746 131.503 14.21 131.503 17.51C131.503 17.95 131.481 18.302 131.437 18.72H121.801C121.955 21.162 123.671 22.504 125.717 22.504C127.521 22.504 128.665 21.58 129.105 20.282H131.261Z" fill="white"/>
</svg>
